# xmcd
#
# Track frame offsets:
#	150
#	12037
#	25696
#	35997
#	48152
#	59773
#	70612
#	79746
#	90559
#	104812
#	115987
#	127189
#	138889
#	149210
#	168812
#	181926
#	191778
#	200214
#	211566
#	218760
#	226922
#	237023
#	250996
#	262774
#	272572
#	285901
#	296874
#	306820
#
# Disc length: 4220 seconds
#
# Revision: 1
# Processed by: cddbd v1.5.2PL0 Copyright (c) Steve Scherf et al.
# Submitted via: audiograbber 1.83.01
#
DISCID=9f107a1c
DTITLE=VA - Sputnik Dance  KOKO-MOJO  2019
DYEAR=2019
DGENRE=R&B
TTITLE0=Equadors - Sputnik Dance
TTITLE1=Vernon Green - Rocket Ship
TTITLE2=Willie C. Echols - Satellite Stroll 
TTITLE3=Johnny Acey - I Go Into Orbit
TTITLE4=Paul Perryman - Satellite Fever Asiatic Flu
TTITLE5=Bo Diddley - Moon Baby
TTITLE6=Missiles - Space Ship 
TTITLE7=Raven - Hole In The Middle Of The Moon
TTITLE8=Drivers - Mr Astronaut
TTITLE9=Marty - Marty On The Planet Mars, Pt. 1
TTITLE10=Danny Overbea - Space Time 
TTITLE11=Cues - Destination 2165
TTITLE12=Jimmie Haskel - Weightless Blues
TTITLE13=Buchanan and Goodman - The Flying Saucer Part 1  
TTITLE14=Hamk Ballard and The Midnighters - The Float
TTITLE15=Jesse Belvin and His Space Riders - My Satellite
TTITLE16=Teen-Clefs - There Goes Sputnik 
TTITLE17=Bob Roubian - Rocket To The Moon 
TTITLE18=Little Ernest Tucker - Gonna Get Me A Satellite
TTITLE19=Sheldon Allman - Radioactive Mama 
TTITLE20=Big John - Astronote Blues
TTITLE21=Syd Lawrence - U.F.O. (The Answers To The Flying Saucer)
TTITLE22=Winifred Atwell - Spaceship Boogie
TTITLE23=Timmie Rogers - Take Me To Your Leader 
TTITLE24=Merv Griffin - The Screamin' Meemies From Planet X 
TTITLE25=Jive Five - People From Another World
TTITLE26=Lil Randolph - Satellite Love
TTITLE27=Big Charles Green - Rocking On The Moon To-Night
EXTD=
EXTT0=
EXTT1=
EXTT2=
EXTT3=
EXTT4=
EXTT5=
EXTT6=
EXTT7=
EXTT8=
EXTT9=
EXTT10=
EXTT11=
EXTT12=
EXTT13=
EXTT14=
EXTT15=
EXTT16=
EXTT17=
EXTT18=
EXTT19=
EXTT20=
EXTT21=
EXTT22=
EXTT23=
EXTT24=
EXTT25=
EXTT26=
EXTT27=
PLAYORDER=
